<svg width="1116" height="800" viewBox="0 0 1116 800" fill="none" xmlns="http://www.w3.org/2000/svg">
<path d="M25.3771 798H980.828H1086.6C1083.07 713.535 1145.19 497.38 1098.61 325.762C1052.02 154.144 777.916 114.599 705.573 114.119C712.631 99.2413 695.516 56.5287 570.593 4.69769C395.912 -28.7045 289.604 124.197 258.285 204.823C111.13 262.413 134.332 425.585 164.328 499.972C13.9964 539.133 9.05594 714.974 25.3771 798Z" fill="#E7F7F4"/>
<g clip-path="url(#clip0)">
<path d="M696.916 140.804C698.297 146.244 698.992 151.832 698.984 157.441C698.418 163.435 697.086 172.594 700.883 181.584C704.679 190.575 721.792 207.1 721.792 207.1C721.792 207.1 735.335 185.03 735.959 180.548C736.582 176.067 732.247 151.083 733.239 140.804C734.23 130.525 696.916 140.804 696.916 140.804Z" fill="#E59B88"/>
<path d="M690.286 90.2764C687.545 97.7628 686.322 105.71 686.688 113.664C687.056 127.892 690.853 134.978 694.82 140.412C696.902 143.382 699.674 145.816 702.902 147.512C706.13 149.207 709.722 150.115 713.377 150.159C717.542 150.382 721.698 149.593 725.481 147.859C729.265 146.126 732.561 143.501 735.08 140.216C739.295 131.018 741.173 120.941 740.548 110.863C739.415 100.948 737.914 88.2038 736.95 87.0834C735.987 85.9631 691.42 82.9661 690.286 90.2764Z" fill="#FCB49D"/>
<path d="M678.415 85.5149C678.415 85.5149 672.748 104.477 670.397 112.711C668.045 120.946 666.629 126.716 670.397 131.617C672.199 134.258 674.841 136.23 677.905 137.219C677.905 137.219 675.072 133.466 675.525 132.149C675.525 132.149 675.525 134.95 681.022 137.219C686.518 139.488 693.885 136.183 693.885 136.183C683.458 115.288 693.488 88.932 692.185 87.4195C690.881 85.9071 680.823 82.462 678.415 85.5149Z" fill="#5D4E51"/>
<path d="M740.548 83.3303C740.548 83.3303 748.17 101.312 751.513 109.098C754.856 116.885 756.925 122.43 754.715 127.724C753.866 130.443 752.056 132.77 749.615 134.278C749.615 134.278 751.202 130.217 750.692 128.956C750.692 128.956 751.145 131.757 747.122 134.698C743.098 137.639 736.582 135.398 736.582 135.398C741.455 113.412 733.324 87.1674 734.145 85.5149C734.967 83.8624 738.055 80.6414 740.548 83.3303Z" fill="#5D4E51"/>
<path d="M678.415 86.9434C677.225 86.5512 678.217 72.5189 683.515 62.3798C688.813 52.2407 704.764 50 709.014 50C713.264 50 725.447 54.5654 730.377 60.1951C735.307 65.8249 735.08 77.6165 735.08 77.6165C735.08 77.6165 684.223 88.876 678.415 86.9434Z" fill="#E2870E"/>
<path d="M732.785 95.514H722.699C722.355 95.4774 722.007 95.5128 721.678 95.6178C721.349 95.7229 721.045 95.8953 720.788 96.1238C720.531 96.3523 720.325 96.6319 720.184 96.9442C720.043 97.2566 719.97 97.5947 719.97 97.9368C719.97 98.2788 720.043 98.6169 720.184 98.9293C720.325 99.2416 720.531 99.5212 720.788 99.7497C721.045 99.9782 721.349 100.151 721.678 100.256C722.007 100.361 722.355 100.396 722.699 100.359H732.785C733.39 100.295 733.949 100.012 734.355 99.5649C734.762 99.1177 734.986 98.5379 734.986 97.9368C734.986 97.3357 734.762 96.7558 734.355 96.3086C733.949 95.8613 733.39 95.5784 732.785 95.514V95.514Z" fill="#5D4E51"/>
<path d="M706.578 95.7941H694.451C694.107 95.7575 693.759 95.7929 693.43 95.8979C693.101 96.003 692.798 96.1754 692.54 96.4039C692.283 96.6324 692.077 96.912 691.936 97.2243C691.795 97.5367 691.722 97.8748 691.722 98.2168C691.722 98.5589 691.795 98.897 691.936 99.2094C692.077 99.5217 692.283 99.8012 692.54 100.03C692.798 100.258 693.101 100.431 693.43 100.536C693.759 100.641 694.107 100.676 694.451 100.64H706.578C707.182 100.575 707.741 100.292 708.148 99.845C708.554 99.3978 708.779 98.8179 708.779 98.2168C708.779 97.6157 708.554 97.0359 708.148 96.5886C707.741 96.1414 707.182 95.8584 706.578 95.7941V95.7941Z" fill="#5D4E51"/>
<path d="M678.415 86.9434C677.848 87.6716 692.411 92.5451 697.341 94.3657C702.271 96.1862 714.907 86.3832 724.427 87.2235C733.947 88.0637 744.487 94.5897 746.187 93.7215C747.887 92.8532 735.08 77.5045 735.08 77.5045C735.08 77.5045 690.088 71.5106 678.415 86.9434Z" fill="#FC9A0D"/>
<path d="M826.368 567.711C826.368 567.711 818.378 575.302 811.267 593.255C804.155 611.209 795.259 651.905 793.729 653.586C792.199 655.266 795.344 656.135 796.562 656.555C797.738 656.947 799.013 656.947 800.189 656.555C801.07 656.347 801.992 656.381 802.856 656.652C803.72 656.923 804.492 657.422 805.09 658.095C806.507 659.216 850.876 671.567 852.548 669.607C854.219 667.646 855.381 666.806 856.741 668.486C858.101 670.167 858.497 670.587 859.744 669.803C860.991 669.019 859.744 670.727 861.699 670.195C864.986 669.327 867.139 579.727 858.554 574.013C849.969 568.299 826.368 567.711 826.368 567.711Z" fill="#C6B38D"/>
<path d="M704.679 641.542C704.679 641.542 721.141 647.34 729.839 640.03V614.206L702.951 615.718L704.679 641.542Z" fill="#FCB49D"/>
<path d="M822.033 607.624L800.84 612.133L806.309 635.688C806.309 635.688 821.268 640.366 826.368 631.767L822.033 607.624Z" fill="#FCB49D"/>
<path d="M678.557 352.997C678.557 352.997 680.058 446.182 680.427 468.253C680.795 490.323 693.318 613.449 693.318 613.449C699.527 617.58 706.737 620.002 714.206 620.464C721.676 620.927 729.135 619.414 735.817 616.082C742.39 612.721 735.307 559.561 735.817 551.662C736.327 543.764 732.474 522.757 732.474 468.281C732.474 455.117 732.644 405.317 735.817 403.077C738.99 400.836 757.151 490.66 760.551 510.126C763.951 529.592 793.106 615.27 793.106 615.27C793.106 615.27 817.727 618.267 829.088 603.674C829.088 603.674 815.828 534.073 810.53 497.774C810.53 497.774 792.369 358.543 788.572 352.941C784.776 347.34 678.557 352.997 678.557 352.997Z" fill="#056178"/>
<path d="M692.581 362.744C692.67 367.914 692.079 373.073 690.825 378.093C689.493 381.874 682.58 384.171 679.208 385.963V393.302C683.572 390.977 694.65 386.888 696.775 382.098C699.211 376.496 699.041 368.794 699.381 362.828C699.523 358.347 692.723 358.347 692.581 362.744Z" fill="#E2870E"/>
<path d="M794.579 382.35C789.935 380.506 785.452 378.286 781.177 375.712C778.061 372.351 778.118 363.388 777.608 359.159C777.098 354.93 770.298 354.874 770.808 359.159C771.516 365.237 771.573 373.163 774.831 378.541C778.089 383.919 789.507 387.504 795.599 388.988L794.579 382.35Z" fill="#E2870E"/>
<path d="M688.756 167.888C686.886 167.888 654.332 179.092 649.402 189.203C644.472 199.314 642.574 220.012 640.308 225.894C638.041 231.776 632.743 231.3 633.508 237.77C634.273 244.24 636.341 246.48 633.508 248.329C630.674 250.178 628.663 251.718 629.428 254.323C630.193 256.928 668.13 276.394 668.13 276.394C668.13 276.394 670.312 272.669 671.445 285.384C672.578 298.1 674.845 318.995 672.578 326.193C670.312 333.391 669.547 335.156 670.68 338.909C671.813 342.662 674.08 344.903 672.947 347.143C671.813 349.384 670.312 349.384 672.21 355.378C674.108 361.372 686.376 359.103 702.923 363.613C719.469 368.122 777.438 360.812 783.501 359.579C789.564 358.347 794.466 354.986 791.434 350.14C788.402 345.295 786.901 341.906 788.431 337.789C789.961 333.671 788.034 334.428 786.901 327.313C785.767 320.199 781.603 235.977 781.603 235.977L803.079 264.658L831.411 242.951C831.411 242.951 832.176 232.196 829.145 230.46C826.113 228.723 819.682 229.115 819.285 224.074C818.888 219.032 820.05 214.691 816.65 210.069C813.25 205.448 787.864 170.857 784.096 169.989C780.328 169.121 748.113 167.888 748.113 167.888L721.707 207.1L688.756 167.888Z" fill="#27C6C7"/>
<path d="M722.274 214.999C721.372 214.999 720.507 215.353 719.87 215.983C719.232 216.614 718.874 217.468 718.874 218.36C718.874 219.251 719.232 220.106 719.87 220.736C720.507 221.367 721.372 221.721 722.274 221.721C723.176 221.721 724.04 221.367 724.678 220.736C725.316 220.106 725.674 219.251 725.674 218.36C725.674 217.468 725.316 216.614 724.678 215.983C724.04 215.353 723.176 214.999 722.274 214.999Z" fill="#EDDACD"/>
<path d="M723.974 240.711C723.122 240.787 722.33 241.176 721.753 241.801C721.177 242.425 720.857 243.24 720.857 244.086C720.857 244.931 721.177 245.746 721.753 246.371C722.33 246.995 723.122 247.384 723.974 247.461C724.826 247.384 725.618 246.995 726.194 246.371C726.771 245.746 727.091 244.931 727.091 244.086C727.091 243.24 726.771 242.425 726.194 241.801C725.618 241.176 724.826 240.787 723.974 240.711Z" fill="#EDDACD"/>
<path d="M725.221 265.274C724.319 265.274 723.454 265.628 722.816 266.259C722.179 266.889 721.821 267.744 721.821 268.635C721.821 269.527 722.179 270.382 722.816 271.012C723.454 271.642 724.319 271.996 725.221 271.996C726.122 271.996 726.987 271.642 727.625 271.012C728.262 270.382 728.62 269.527 728.62 268.635C728.62 267.744 728.262 266.889 727.625 266.259C726.987 265.628 726.122 265.274 725.221 265.274Z" fill="#EDDACD"/>
<path d="M727.855 297.82C728.757 297.82 729.622 297.466 730.26 296.836C730.897 296.206 731.255 295.351 731.255 294.459C731.255 293.568 730.897 292.713 730.26 292.083C729.622 291.452 728.757 291.098 727.855 291.098C726.954 291.098 726.089 291.452 725.451 292.083C724.814 292.713 724.456 293.568 724.456 294.459C724.456 295.351 724.814 296.206 725.451 296.836C726.089 297.466 726.954 297.82 727.855 297.82Z" fill="#EDDACD"/>
<path d="M727.855 317.202C726.954 317.202 726.089 317.556 725.451 318.187C724.814 318.817 724.456 319.672 724.456 320.563C724.456 321.455 724.814 322.31 725.451 322.94C726.089 323.57 726.954 323.924 727.855 323.924C728.757 323.924 729.622 323.57 730.26 322.94C730.897 322.31 731.255 321.455 731.255 320.563C731.255 319.672 730.897 318.817 730.26 318.187C729.622 317.556 728.757 317.202 727.855 317.202Z" fill="#EDDACD"/>
<path d="M729.414 343.306C728.512 343.306 727.647 343.66 727.01 344.291C726.372 344.921 726.014 345.776 726.014 346.667C726.014 347.559 726.372 348.414 727.01 349.044C727.647 349.674 728.512 350.028 729.414 350.028C730.315 350.028 731.18 349.674 731.818 349.044C732.455 348.414 732.814 347.559 732.814 346.667C732.814 345.776 732.455 344.921 731.818 344.291C731.18 343.66 730.315 343.306 729.414 343.306V343.306Z" fill="#EDDACD"/>
<path d="M638.976 273.005C633.715 285.508 629.784 298.518 627.246 311.825C624.611 329.414 621.948 354.118 621.948 354.118C621.948 354.118 634.811 362.156 635.944 359.439C637.078 356.722 663.597 294.599 663.965 287.597C664.334 280.595 638.976 273.005 638.976 273.005Z" fill="#FCB49D"/>
<path d="M865.184 196.653C864.249 194.973 860.821 209.285 850.791 226.118C840.761 242.951 836.993 247.069 835.661 246.901C834.33 246.733 833.168 243.708 831.581 244.1C829.995 244.492 810.672 266.339 810.672 266.339C811.238 265.806 825.433 282.836 830.731 284.516C836.03 286.197 847.023 290.342 849.289 287.905C851.556 285.468 875.214 218.304 877.31 207.969C879.407 197.633 866.119 198.334 865.184 196.653Z" fill="#FCB49D"/>
<path d="M863.711 195.225C863.711 195.225 860.651 183.797 862.067 178.728C863.484 173.658 865.467 165.199 866.317 163.799C867.167 162.399 874.562 165.48 879.095 167.748C881.452 168.629 883.465 170.226 884.845 172.31C886.225 174.393 886.9 176.856 886.773 179.344C886.773 185.702 879.379 205.42 879.095 207.352C878.812 209.285 877.537 215.027 877.537 215.027C873.75 212.112 869.574 209.727 865.127 207.941C860.537 206.4 859.801 206.792 859.801 206.792C861.553 203.099 862.865 199.217 863.711 195.225V195.225Z" fill="#3DA0B7"/>
<path d="M733.324 150.215C736.44 164.807 721.481 204.916 721.792 207.212C720.291 205.252 698.899 174.806 698.956 152.848L668.045 169.849C668.045 169.849 680.965 165.788 683.487 170.689C686.008 175.591 686.32 185.142 693.885 190.743C702.874 196.655 712.16 202.115 721.707 207.1C734.57 204.664 747.462 182.313 750.748 169.737C752.222 164.135 760.693 164.135 760.693 164.135L733.324 150.215Z" fill="#E2870E"/>
<path d="M841.583 574.293C843.138 574.434 844.686 573.958 845.887 572.97C847.087 571.983 847.842 570.565 847.986 569.028L886.972 142.681C887.072 141.904 887.013 141.116 886.798 140.363C886.583 139.61 886.218 138.908 885.722 138.297C885.227 137.687 884.612 137.182 883.915 136.812C883.218 136.441 882.453 136.213 881.664 136.142C880.876 136.07 880.082 136.157 879.328 136.395C878.574 136.634 877.877 137.02 877.278 137.531C876.678 138.042 876.189 138.667 875.839 139.369C875.49 140.071 875.286 140.835 875.242 141.616L836.256 567.991C836.186 568.751 836.268 569.517 836.498 570.245C836.728 570.974 837.101 571.65 837.596 572.235C838.091 572.821 838.698 573.304 839.382 573.657C840.066 574.01 840.814 574.227 841.583 574.293V574.293Z" fill="#5D4E51"/>
<path d="M668.045 274.965C662.379 273.313 634.329 254.211 630.703 255.359C629.147 256.481 627.892 257.962 627.048 259.673C625.745 262.081 622.883 262.641 623.648 264.518C624.413 266.395 660.197 287.345 663.03 288.857C665.864 290.37 668.697 291.462 669.094 288.857C669.49 286.253 671.473 286.393 671.36 285.104C671.247 283.816 673.74 276.618 668.045 274.965Z" fill="#E2870E"/>
<path d="M835.435 240.375C833.706 238.61 834.018 236.201 832.205 236.257C830.391 236.313 802.427 258.664 800.359 260.345C798.29 262.025 796.534 264.07 798.659 265.134C800.784 266.199 800.132 267.767 801.265 267.935C802.399 268.103 808.009 272.36 811.012 268.327C814.015 264.294 838.211 247.685 838.098 244.408C837.549 242.872 836.635 241.489 835.435 240.375V240.375Z" fill="#E2870E"/>
<path d="M621.948 348.544L639.543 353.725C638.791 355.493 638.537 357.428 638.806 359.327C639.373 362.128 644.671 370.531 644.104 376.132C643.538 381.734 642.971 382.126 642.971 382.126C642.971 382.126 641.073 375.208 636.143 375.572C631.213 375.936 628.606 381.566 629.173 387.56C629.74 393.554 630.136 400.64 629.173 400.836C628.21 401.032 623.28 397.279 619.88 395.794C617.566 394.296 615.789 392.114 614.802 389.56C613.815 387.005 613.669 384.208 614.383 381.566C616.083 375.208 620.05 364.341 620.248 359.943C620.575 356.112 621.143 352.305 621.948 348.544Z" fill="#43AFD1"/>
<path d="M866.402 195.897C866.402 195.897 863.257 183.433 864.674 178.335C865.445 174.78 867.046 171.452 869.349 168.617C870.629 167.398 872.289 166.643 874.059 166.475C875.829 166.308 877.603 166.736 879.095 167.692C881.452 168.573 883.465 170.17 884.845 172.254C886.225 174.337 886.9 176.8 886.773 179.288C886.773 185.646 885.64 196.457 883.203 200.238C882.24 201.835 869.349 200.994 866.402 195.897Z" fill="#43AFD1"/>
<path d="M861.727 180.912C861.727 180.912 860.934 167.86 863.767 163.463C866.6 159.066 874.279 157.077 875.695 156.517C877.112 155.957 877.962 159.878 875.695 161.838C873.429 163.799 868.867 165.48 866.6 169.989C864.334 174.498 861.727 180.912 861.727 180.912Z" fill="#3DA0B7"/>
<path d="M722.217 118.453C722.217 114.784 718.534 109.434 715.417 109.434C712.301 109.434 709.014 114.672 709.014 118.453C709.014 122.234 712.273 122.654 715.417 122.654C718.562 122.654 722.217 122.094 722.217 118.453Z" fill="#E59B88"/>
<path d="M714.369 132.317C712.091 132.374 709.818 132.091 707.626 131.477C707.522 131.448 707.424 131.399 707.339 131.332C707.254 131.266 707.183 131.183 707.13 131.09C707.077 130.996 707.044 130.893 707.032 130.786C707.02 130.68 707.029 130.572 707.059 130.469C707.131 130.263 707.28 130.093 707.475 129.994C707.67 129.895 707.897 129.874 708.108 129.937C713.124 131.409 718.506 131.071 723.294 128.984C723.394 128.938 723.503 128.912 723.613 128.908C723.724 128.905 723.834 128.923 723.937 128.962C724.04 129.001 724.134 129.061 724.213 129.137C724.293 129.213 724.356 129.304 724.399 129.404C724.445 129.501 724.471 129.607 724.475 129.714C724.478 129.821 724.459 129.928 724.42 130.028C724.38 130.127 724.32 130.218 724.243 130.294C724.166 130.37 724.075 130.429 723.974 130.469C720.937 131.738 717.666 132.367 714.369 132.317V132.317Z" fill="#9D443E"/>
<path d="M729.669 102.712H723.747C722.943 102.712 722.172 103.028 721.604 103.59C721.035 104.152 720.716 104.914 720.716 105.709C720.716 106.504 721.035 107.266 721.604 107.828C722.172 108.39 722.943 108.706 723.747 108.706H729.725C730.529 108.706 731.301 108.39 731.869 107.828C732.438 107.266 732.757 106.504 732.757 105.709C732.757 104.914 732.438 104.152 731.869 103.59C731.301 103.028 730.529 102.712 729.725 102.712H729.669Z" fill="white"/>
<path d="M705.218 102.712H698.956C698.152 102.712 697.381 103.028 696.812 103.59C696.244 104.152 695.925 104.914 695.925 105.709C695.925 106.504 696.244 107.266 696.812 107.828C697.381 108.39 698.152 108.706 698.956 108.706H705.218C706.022 108.706 706.793 108.39 707.361 107.828C707.93 107.266 708.249 106.504 708.249 105.709C708.249 104.914 707.93 104.152 707.361 103.59C706.793 103.028 706.022 102.712 705.218 102.712Z" fill="white"/>
<path d="M728.649 103.076C728.121 103.071 727.603 103.22 727.162 103.506C726.72 103.792 726.374 104.201 726.168 104.682C725.962 105.163 725.905 105.693 726.005 106.205C726.105 106.718 726.356 107.19 726.727 107.561C727.099 107.932 727.573 108.185 728.09 108.289C728.608 108.393 729.145 108.343 729.633 108.144C730.121 107.946 730.539 107.608 730.833 107.175C731.127 106.741 731.284 106.231 731.284 105.709C731.284 105.016 731.007 104.35 730.514 103.857C730.02 103.364 729.35 103.084 728.649 103.076V103.076Z" fill="#5D4E51"/>
<path d="M704.538 103.076C704.011 103.076 703.496 103.231 703.058 103.52C702.62 103.809 702.279 104.221 702.077 104.702C701.876 105.183 701.823 105.712 701.926 106.223C702.028 106.733 702.282 107.203 702.654 107.571C703.027 107.939 703.502 108.19 704.018 108.291C704.535 108.393 705.07 108.341 705.557 108.142C706.044 107.942 706.459 107.605 706.752 107.172C707.045 106.739 707.201 106.23 707.201 105.709C707.201 105.011 706.92 104.341 706.421 103.847C705.921 103.354 705.244 103.076 704.538 103.076V103.076Z" fill="#5D4E51"/>
<path d="M728.507 104.057C728.342 103.869 728.139 103.716 727.912 103.608C727.232 103.3 726.665 104.281 727.345 104.589C727.49 104.636 727.618 104.724 727.714 104.841C728.224 105.373 729.017 104.589 728.507 104.057Z" fill="white"/>
<path d="M703.914 103.636C703.348 103.188 702.554 103.973 703.121 104.421L703.546 104.757C704.113 105.205 704.934 104.421 704.368 103.973L703.914 103.636Z" fill="white"/>
<path d="M642.971 382.182C642.971 382.182 646.229 414.168 647.674 432.598C649.119 451.027 653.34 460.942 649.119 463.183C644.897 465.424 642.857 461.783 637.786 460.942C632.714 460.102 626.453 462.063 621.976 453.632C617.5 445.202 620.758 438.48 617.613 438.199C614.468 437.919 608.263 437.359 609.113 429.209C609.963 421.058 633.082 348.768 642.971 382.182Z" fill="#C5EFFF"/>
<path d="M679.577 415.821V423.635C686.948 425.329 694.508 426.082 702.073 425.876C712.487 425.968 722.896 425.407 733.239 424.195L733.692 416.129C715.899 418.341 697.171 419.966 679.577 415.821Z" fill="#EDDACD"/>
<path d="M816.338 532.729C801.82 539.735 785.828 543.238 769.674 542.952L772.054 550.626C773.641 550.626 773.868 550.626 775.454 550.626C790.121 550.784 804.623 547.561 817.812 541.215L816.338 532.729Z" fill="#EDDACD"/>
<path d="M821.013 559.365C807.565 565.925 792.641 568.972 777.664 568.215L780.214 576.058C781.773 576.058 781.206 576.058 782.764 576.058C797.469 576.058 809.369 574.349 822.43 567.851L821.013 559.365Z" fill="#EDDACD"/>
<path d="M652.037 671.483C652.037 671.483 651.811 678.569 653.652 680.418C655.494 682.267 672.267 683.639 684.167 682.659C696.066 681.678 710.148 678.233 717.401 677.281C724.654 676.329 737.829 676.889 737.829 675.348C737.829 673.808 736.837 667.17 736.837 667.17C736.837 667.17 658.582 671.371 652.037 671.483Z" fill="#5D4E51"/>
<path d="M852.462 672.043C850.564 670.503 802.342 659.776 802.342 659.776C802.342 659.776 802.342 662.885 802.342 664.173C802.342 665.461 809.284 666.694 811.267 667.982C813.25 669.271 813.363 672.099 814.78 677.197C816.197 682.295 823.762 686.916 833.621 686.916C843.481 686.916 851.414 683.303 853.312 681.062C854.018 679.626 854.312 678.025 854.162 676.435C854.012 674.845 853.424 673.326 852.462 672.043Z" fill="#5D4E51"/>
<path d="M737.262 609.108H694.706C692.735 609.108 691.136 610.688 691.136 612.637V618.939C691.136 620.888 692.735 622.468 694.706 622.468H737.262C739.234 622.468 740.832 620.888 740.832 618.939V612.637C740.832 610.688 739.234 609.108 737.262 609.108Z" fill="#E2870E"/>
<path d="M828.316 601.136L791.812 607.291C789.869 607.619 788.562 609.442 788.893 611.363L789.961 617.548C790.292 619.469 792.136 620.761 794.08 620.433L830.583 614.278C832.527 613.95 833.834 612.127 833.502 610.206L832.435 604.021C832.104 602.1 830.259 600.808 828.316 601.136Z" fill="#E2870E"/>
<path d="M729.839 640.03C727.204 638.545 713.009 645.631 704.679 641.542C704.679 641.542 676.658 660.42 663.399 663.053C650.139 665.685 652.066 671.455 652.066 671.455C652.066 671.455 662.294 674.424 683.487 672.744C704.679 671.063 736.865 667.142 736.865 667.142C736.865 667.142 732.502 641.542 729.839 640.03Z" fill="#E5D7CA"/>
<path d="M842.461 658.179C831.695 648.264 826.368 631.795 826.368 631.795C826.368 631.795 808.774 637.005 806.309 635.716C806.309 635.716 804.24 645.827 803.277 651.457C802.76 654.232 802.447 657.04 802.342 659.86C802.342 659.86 810.672 662.296 812.372 665.293C814.072 668.29 814.638 677.085 828.096 677.281C841.554 677.477 851.358 674.172 852.123 673.304C852.887 672.436 853.256 668.094 842.461 658.179Z" fill="#E5D7CA"/>
<path d="M855.324 565.975L831.043 561.942C830.259 561.79 829.453 561.795 828.671 561.956C827.889 562.117 827.148 562.432 826.492 562.881C825.835 563.33 825.276 563.905 824.848 564.571C824.419 565.238 824.131 565.982 823.998 566.76C823.865 567.539 823.892 568.336 824.076 569.104C824.26 569.872 824.598 570.596 825.07 571.233C825.542 571.87 826.138 572.407 826.823 572.812C827.509 573.218 828.269 573.483 829.06 573.593L853.341 577.626C854.883 577.841 856.45 577.452 857.707 576.542C858.963 575.632 859.811 574.274 860.07 572.755C860.328 571.236 859.977 569.678 859.09 568.412C858.204 567.145 856.853 566.271 855.324 565.975V565.975Z" fill="#5D4E51"/>
</g>
<path d="M411.923 167.406C411.923 167.406 415.15 182.595 413.189 186.552C411.229 190.509 407.034 195.007 407.034 195.007C407.034 195.007 420.014 214.522 424.928 215.21C425.722 215.333 449.596 194.097 449.596 194.097C449.596 194.097 442.225 190.681 442.225 185.987C442.225 181.292 442.225 163.424 442.225 163.424L411.923 167.406Z" fill="#E59B88"/>
<path d="M454.485 167.676C465.156 159.295 474.711 134.668 465.677 114.907C456.669 95.146 442.721 81.6281 420.584 86.4945C398.447 91.361 388.074 108.418 388.62 133.316C389.166 158.213 402.244 174.509 403.932 174.509C404.627 174.509 403.585 167.873 404.677 160.278C405.768 152.708 446.543 142.705 449.397 151.725C451.532 158.435 449.571 169.028 448.206 171.191C446.841 173.354 451.556 169.962 454.485 167.676Z" fill="#4C353D"/>
<path d="M420.584 86.4699C398.447 91.3364 388.074 108.394 388.62 133.291C389.166 158.189 402.244 174.484 403.932 174.484C404.627 174.484 403.585 167.848 404.677 160.253C405.768 152.683 429.072 104.363 431.827 105.887C432.894 106.501 442.721 81.6035 420.584 86.4699Z" fill="#402E33"/>
<path d="M432.894 106.501C431.802 105.96 428.253 102.716 421.974 110.827C415.695 118.938 401.748 130.858 400.383 141.943C399.018 153.027 409.293 167.553 416.638 173.059C425.647 179.818 435.202 172.887 440.264 168.733C446.692 163.449 449.546 152.487 449.546 152.487C449.546 152.487 449.72 137.15 442.994 123.804C436.865 111.687 432.894 106.501 432.894 106.501Z" fill="#FCB49D"/>
<path d="M435.103 654.101C433.887 646.089 429.519 636.577 429.519 636.577C429.519 636.577 425.821 629.228 414.455 635.963C414.455 635.963 413.76 641.493 412.743 648.497C411.7 655.478 408.275 676.959 409.64 680.203C411.005 683.447 419.964 687.699 429.618 687.011C439.247 686.323 444.087 682.587 443.739 678.999C443.367 675.41 436.294 662.114 435.103 654.101Z" fill="#4C353D"/>
<path d="M495.532 659.853C496.004 653.216 497.443 652.282 495.209 648.006C492.976 643.754 488.732 634.07 487.541 633.701C486.35 633.333 472.402 635.692 473.445 641.542C473.445 641.542 473.519 648.325 471.782 658.599C470.02 668.848 467.96 670.446 466.049 676.59C464.138 682.735 462.376 688.265 470.988 690.157C479.599 692.05 494.589 688.732 495.532 684.627C496.475 680.523 495.036 666.489 495.532 659.853Z" fill="#4C353D"/>
<path d="M414.33 642.992C414.032 652.479 408.473 662.31 413.834 671.355C414.851 673.051 417.531 671.527 416.514 669.807C411.625 661.548 417.159 651.692 417.432 642.992C417.482 641.026 414.38 641.026 414.33 642.992Z" fill="#917C83"/>
<path d="M433.862 667.668C430.909 667.717 426.591 667.742 423.761 668.995C423.265 668.995 422.818 669.118 422.396 669.536C421.131 670.765 421.85 672.313 422.967 673.321C425.747 675.828 431.008 677.917 434.408 675.754C436.269 674.992 437.957 673.026 438.205 671.183C438.577 668.381 436.17 667.644 433.862 667.668Z" fill="#917C83"/>
<path d="M490.669 648.423C488.832 652.307 488.51 656.411 488.708 660.663C488.882 664.645 490.247 669.929 487.591 673.37C486.475 674.82 488.956 676.246 490.073 674.796C492.48 671.699 492.009 667.644 491.786 663.981C491.463 659.238 491.066 654.298 493.15 649.849C493.945 648.202 491.463 646.777 490.669 648.423Z" fill="#917C83"/>
<path d="M482.131 673.395C480.593 672.78 478.508 672.707 476.87 672.485C474.761 672.215 472.651 672.043 470.517 671.945C470.02 671.92 469.648 672.117 469.425 672.412C468.953 672.731 468.705 673.321 468.829 673.96C469.35 676.59 470.889 679.785 473.892 680.154C475.034 680.301 476.076 679.957 477.118 679.539C478.831 678.851 481.089 678.138 482.628 677.106C484.241 676.049 483.968 674.108 482.131 673.395Z" fill="#917C83"/>
<path d="M413.958 133.193H408.647C407.109 133.193 405.843 134.323 405.843 135.724C405.843 137.125 407.109 138.256 408.647 138.256H413.958C415.497 138.256 416.762 137.125 416.762 135.724C416.738 134.323 415.497 133.193 413.958 133.193Z" fill="white"/>
<path d="M437.212 132.849H431.901C430.363 132.849 429.097 133.979 429.097 135.38C429.097 136.781 430.363 137.912 431.901 137.912H437.212C438.751 137.912 440.017 136.781 440.017 135.38C440.017 134.004 438.751 132.849 437.212 132.849Z" fill="white"/>
<path d="M440.637 124.91H429.345C428.501 124.91 427.806 125.598 427.806 126.434C427.806 127.27 428.501 127.958 429.345 127.958H440.637C441.48 127.958 442.175 127.27 442.175 126.434C442.175 125.598 441.48 124.91 440.637 124.91Z" fill="#37262B"/>
<path d="M414.851 124.91H403.56C402.716 124.91 402.021 125.598 402.021 126.434C402.021 127.27 402.716 127.958 403.56 127.958H414.851C415.695 127.958 416.39 127.27 416.39 126.434C416.415 125.598 415.72 124.91 414.851 124.91Z" fill="#37262B"/>
<path d="M426.69 148.726C426.69 145.703 424.059 141.427 421.925 141.427C419.79 141.427 417.358 145.801 417.358 148.825C417.358 151.848 419.89 153.052 422.024 153.052C424.183 153.052 426.69 151.725 426.69 148.726Z" fill="#E59B88"/>
<path d="M423.711 162.293C420.857 162.293 418.028 161.409 415.695 159.762C415.199 159.418 415.099 158.73 415.447 158.263C415.794 157.771 416.489 157.673 416.961 158.017C419.12 159.541 421.85 160.303 424.48 160.131C427.111 159.958 429.717 158.828 431.653 157.058C432.099 156.64 432.794 156.665 433.191 157.107C433.613 157.55 433.588 158.238 433.142 158.631C430.809 160.77 427.806 162.072 424.629 162.293C424.307 162.269 424.009 162.293 423.711 162.293Z" fill="#BE1F37"/>
<path d="M435.772 132.898C434.258 132.898 433.042 134.029 433.042 135.405C433.042 136.781 434.258 137.912 435.772 137.912C437.286 137.912 438.502 136.781 438.502 135.405C438.502 134.029 437.261 132.898 435.772 132.898Z" fill="#063B47"/>
<path d="M411.923 133.215C410.409 133.215 409.193 134.346 409.193 135.722C409.193 137.099 410.409 138.229 411.923 138.229C413.437 138.229 414.653 137.099 414.653 135.722C414.653 134.346 413.437 133.215 411.923 133.215Z" fill="#063B47"/>
<path d="M422.793 501.619C423.066 489.157 424.158 473.206 424.158 473.206L390.283 464.555C390.01 465.366 394.378 482.693 393.559 501.373C392.74 520.052 390.283 547.383 395.743 571.47C401.202 595.556 414.604 637.24 414.604 637.24C414.604 637.24 427.459 642.107 428.278 637.24C429.097 632.374 424.456 554.978 423.364 541.165C422.247 527.352 422.52 514.08 422.793 501.619Z" fill="#FCB49D"/>
<path d="M472.527 520.839C466.522 502.7 466.795 492.869 467.34 474.927C467.886 456.985 434.284 473.477 434.284 473.477C434.284 473.477 435.103 512.998 437.014 517.865C438.925 522.731 473.446 640.436 473.446 640.436C473.446 640.436 487.567 642.893 487.567 633.701C487.542 624.509 479.228 541.116 472.527 520.839Z" fill="#FCB49D"/>
<path d="M517.422 298.923C512.309 286.29 501.018 254.904 501.018 254.904L480.246 264.637C480.246 264.637 491.711 294.597 493.002 300.914C494.267 307.23 498.66 327.802 503.201 338.076C507.768 348.35 512.855 356.485 512.855 356.485L527.969 351.79C527.994 351.79 522.534 311.556 517.422 298.923Z" fill="#FCB49D"/>
<path d="M364.026 292.975C362.934 296.219 344.892 308.312 344.892 308.312L353.628 327.606C353.628 327.606 380.951 311.556 382.788 309.565C384.599 307.575 385.617 257.509 385.617 257.509L368.046 253.822C367.848 254.363 365.118 289.731 364.026 292.975Z" fill="#FCB49D"/>
<path d="M436.343 133.758C436.17 133.586 435.996 133.439 435.748 133.34C435.103 133.045 434.557 133.979 435.202 134.274C435.351 134.348 435.45 134.397 435.574 134.52C436.07 135.036 436.84 134.25 436.343 133.758Z" fill="white"/>
<path d="M412.568 133.34C412.022 132.898 411.253 133.66 411.799 134.102L412.221 134.422C412.767 134.864 413.536 134.102 412.99 133.66C412.841 133.562 412.717 133.463 412.568 133.34Z" fill="white"/>
<path d="M400.259 197.981C400.259 197.981 380.157 201.225 376.062 209.901C371.967 218.553 362.934 257.533 362.934 257.533H385.617C385.617 257.533 387.9 245.343 404.255 246.178C420.609 246.989 468.978 246.989 470.616 248.341C472.254 249.693 477.987 268.913 477.987 268.913L506.402 258.099C506.402 258.099 493.274 216.144 484.811 210.196C476.349 204.248 454.758 199.382 453.939 199.382C453.12 199.382 424.903 215.259 424.903 215.259L400.259 197.981Z" fill="#C5EFFF"/>
<path d="M380.604 326.524C380.604 326.524 382.416 287.199 383.334 275.648C384.252 264.096 384.599 253.994 389.166 249.128C392.715 245.343 401.376 244.605 414.852 244.605C428.327 244.605 459.672 243.696 463.121 244.605C466.571 245.515 470.963 244.089 473.321 251.389C475.679 258.689 478.979 311.384 481.709 324.189C484.439 336.994 492.455 384.627 495.557 405.027C498.66 425.426 499.925 471.609 499.925 471.609C499.925 471.609 428.7 491.812 380.604 466.914C380.604 466.914 375.69 449.808 376.41 415.89C377.154 381.948 380.604 326.524 380.604 326.524Z" fill="#27C6C7"/>
<path d="M399.093 199.087C398.82 197.489 397.231 196.432 395.593 196.727L392.789 197.243C391.201 197.538 390.158 198.964 390.407 200.488L398.77 251.733C398.993 253.134 400.259 254.142 401.723 254.142H405.024C406.86 254.142 408.275 252.569 407.977 250.824L399.093 199.087Z" fill="#056178"/>
<path d="M460.516 197.612L456.867 196.727C455.428 196.383 454.038 197.489 453.865 199.136L447.908 253.503C447.735 255.174 448.876 256.649 450.39 256.649H454.286C455.552 256.649 456.619 255.592 456.768 254.166L462.476 200.66C462.625 199.259 461.781 197.907 460.516 197.612Z" fill="#056178"/>
<path d="M487.542 456.714C487.542 456.714 508.587 471.068 533.18 464.555C557.774 458.066 595.224 426.655 595.224 420.707C595.224 414.76 580.73 411.245 565.716 410.704C550.701 410.163 536.307 415.546 527.994 420.707C519.68 425.893 474.686 450.594 487.542 456.714Z" fill="#9B1B39"/>
<path d="M403.436 251.389C399.217 251.389 399.217 257.878 403.436 257.878C407.655 257.878 407.655 251.389 403.436 251.389Z" fill="#EDDACD"/>
<path d="M452.028 251.389C447.809 251.389 447.809 257.878 452.028 257.878C456.247 257.878 456.247 251.389 452.028 251.389Z" fill="#EDDACD"/>
<path d="M513.972 472.813C513.947 472.813 513.947 472.813 513.922 472.813C511.813 472.788 510.125 471.068 510.15 468.979L510.448 445.753C510.597 434.25 510.77 419.946 518.637 408.689C526.306 397.702 539.285 392.541 549.733 389.297C555.491 387.502 563.854 385.684 569.984 390.526C572.888 392.811 574.501 396.056 575.692 398.931C577.529 403.38 578.943 408.025 579.837 412.72C580.234 414.784 578.869 416.75 576.809 417.144C574.724 417.537 572.739 416.185 572.342 414.145C571.523 409.918 570.282 405.764 568.619 401.807C567.751 399.742 566.758 397.653 565.219 396.449C562.713 394.483 558.519 394.507 552.041 396.523C542.76 399.423 531.294 403.896 524.941 412.99C518.414 422.33 518.24 435.356 518.116 445.826L517.818 469.053C517.769 471.142 516.081 472.813 513.972 472.813Z" fill="#B51D3A"/>
<path d="M413.189 186.548C413.189 186.548 398.646 192.668 392.814 200.238C386.982 207.808 386.982 207.808 386.982 207.808C386.982 207.808 392.64 202.942 400.383 205.817C408.126 208.693 424.927 215.206 424.927 215.206C424.927 215.206 403.659 200.238 413.189 186.548Z" fill="#E6FBFF"/>
<path d="M462.526 197.71C456.694 190.14 442.176 185.987 442.176 185.987C445.179 201.864 424.903 215.21 424.903 215.21C424.903 215.21 446.618 208.623 454.957 203.29C461.905 198.841 468.358 205.28 468.358 205.28C468.358 205.28 468.358 205.28 462.526 197.71Z" fill="#E6FBFF"/>
<path d="M286.794 315.489L335.56 661.327C335.933 663.957 338.34 665.776 340.921 665.382L341.963 665.235C344.544 664.842 346.306 662.409 345.934 659.803L296.126 314.112C295.754 311.556 293.446 309.762 290.914 310.057C288.284 310.352 286.397 312.81 286.794 315.489Z" fill="#056178"/>
<path d="M555.367 462.023C555.367 462.023 565.641 413.973 567.279 409.205C568.917 404.437 573.111 397.604 573.111 397.604L586.637 400.578C586.637 400.578 588.424 407.362 588.771 417.561C589.118 427.761 580.606 463.719 580.606 463.719L555.367 462.023Z" fill="#C5EFFF"/>
<path d="M485.258 452.905C485.258 452.905 482.627 486.454 487.566 502.159C492.48 517.865 498.485 523.542 521.441 525.435C544.397 527.327 551.768 524.894 564.077 517.054C576.387 509.213 595.769 486.798 597.134 479.326C598.499 471.854 599.045 420.437 595.223 418.815C593.089 417.906 574.774 448.087 545.043 457.796C521.764 465.366 485.258 452.905 485.258 452.905Z" fill="#B51D3A"/>
<path d="M349.185 299.636C343.726 304.158 321.216 318.389 314.292 320.92C307.368 323.452 307.368 318.389 299.898 319.126C293.347 319.765 292.056 323.28 288.78 325.984C285.504 328.687 282.576 328.859 282.774 331.219C282.923 333.013 288.606 332.669 292.801 329.769C296.995 326.893 298.459 327.606 298.459 327.606C298.459 327.606 300.469 348.35 301.189 348.35C301.908 348.35 312.481 343.114 315.037 342.574C317.593 342.033 362.041 332.472 362.041 332.472C362.041 332.472 354.819 315.685 353.305 311.9C351.543 307.575 349.185 299.636 349.185 299.636Z" fill="#FC9A0D"/>
<path d="M535.29 381.555C532.733 375.779 533.279 342.574 533.279 342.574C533.279 342.574 522.36 346.899 516.329 348.35C510.323 349.8 499.925 351.225 499.925 351.225C499.925 351.225 517.769 384.774 517.223 392.713C516.677 400.652 520.697 405.985 520.697 405.985C520.697 405.985 528.093 399.054 529.805 404.633C530.45 406.698 525.338 412.4 525.338 412.4C525.338 412.4 530.525 416.357 535.637 412.941C540.749 409.524 542.933 402.471 542.933 396.523C542.933 390.575 537.821 387.33 535.29 381.555Z" fill="#FC9A0D"/>
<path d="M285.455 330.727C284.76 330.875 281.434 334.389 282.749 339.919C284.09 345.474 286.546 352.38 290.095 352.921C293.644 353.462 300.196 350.857 301.164 348.374C302.132 345.892 301.313 329.105 298.434 327.63C295.58 326.131 285.455 330.727 285.455 330.727Z" fill="#E2870E"/>
<path d="M445.253 266.726H410.26C407.878 266.726 405.942 268.643 405.942 271.002V276.778C405.942 279.138 407.878 281.055 410.26 281.055H445.228C447.61 281.055 449.546 279.138 449.546 276.778V271.002C449.571 268.643 447.635 266.726 445.253 266.726Z" fill="#056178"/>
<path d="M445.526 270.167H410.087C409.74 270.167 409.467 270.437 409.467 270.781C409.467 271.125 409.74 271.396 410.087 271.396H445.526C445.874 271.396 446.147 271.125 446.147 270.781C446.147 270.437 445.874 270.167 445.526 270.167Z" fill="#EDDACD"/>
<path d="M334.568 257.976L228.499 274.222C225.645 274.664 222.99 272.723 222.543 269.896L219.565 250.775C219.118 247.948 221.079 245.318 223.933 244.876L330.002 228.654C332.856 228.212 335.511 230.154 335.958 232.98L338.936 252.102C339.358 254.904 337.397 257.534 334.568 257.976Z" fill="#056178"/>
<path d="M257.411 254.879C259.471 254.461 261.457 255.788 261.854 257.828C262.896 263.432 265.055 273.681 267.239 276.926C270.316 281.473 277.513 288.158 286.795 286.929C296.077 285.725 300.544 277.54 301.462 272.379C302.132 268.618 300.717 257.976 299.898 252.495C299.625 250.602 300.891 248.833 302.777 248.464C304.887 248.046 306.922 249.546 307.095 251.659C307.691 258.492 308.758 272.035 308.063 275.549C306.549 283.144 300.221 290.444 294.116 294.007L296.424 311.974L285.504 313.375L282.973 295.703C279.548 294.671 269.075 291.23 263.492 283.463C259.422 277.761 256.046 265.497 254.533 259.352C254.061 257.337 255.352 255.321 257.411 254.879Z" fill="#E5D7CA"/>
<path d="M496.848 502.774C494.49 502.774 492.554 504.691 492.554 507.026V521.822C492.554 524.157 494.49 526.074 496.848 526.074C499.205 526.074 501.141 524.157 501.141 521.822V507.026C501.116 504.691 499.205 502.774 496.848 502.774Z" fill="#B51D3A"/>
<path d="M549.758 508.451C547.401 508.451 545.465 510.368 545.465 512.679V527.475C545.465 529.81 547.401 531.727 549.758 531.727C552.116 531.727 554.052 529.81 554.052 527.475V512.679C554.027 510.344 552.116 508.451 549.758 508.451Z" fill="#B51D3A"/>
<path d="M592.742 471.265C590.384 471.265 588.473 473.182 588.473 475.517V490.313C588.473 492.648 590.409 494.565 592.742 494.565C595.099 494.565 597.035 492.648 597.035 490.313V475.517C597.035 473.182 595.099 471.265 592.742 471.265Z" fill="#B51D3A"/>
<path d="M502.754 528.163C502.754 523.69 499.702 520.077 495.929 520.077C492.157 520.077 489.105 523.714 489.105 528.163C489.105 532.636 492.157 536.249 495.929 536.249C499.702 536.274 502.754 532.636 502.754 528.163Z" fill="#37262B"/>
<path d="M556.583 533.595C556.583 529.121 553.53 525.508 549.758 525.508C545.986 525.508 542.933 529.146 542.933 533.595C542.933 538.068 545.986 541.681 549.758 541.681C553.53 541.681 556.583 538.068 556.583 533.595Z" fill="#37262B"/>
<path d="M555.516 533.595C555.516 530.694 554.225 528.36 552.637 528.36C551.049 528.36 549.758 530.694 549.758 533.595C549.758 536.495 551.049 538.83 552.637 538.83C554.225 538.83 555.516 536.47 555.516 533.595Z" fill="#5D4E51"/>
<path d="M500.992 528.36C500.992 525.459 499.702 523.124 498.113 523.124C496.525 523.124 495.234 525.459 495.234 528.36C495.234 531.26 496.525 533.595 498.113 533.595C499.702 533.595 500.992 531.235 500.992 528.36Z" fill="#5D4E51"/>
<path d="M600.038 496.801C600.038 492.992 597.432 489.895 594.206 489.895C590.98 489.895 588.374 492.992 588.374 496.801C588.374 500.611 590.98 503.708 594.206 503.708C597.432 503.708 600.038 500.611 600.038 496.801Z" fill="#37262B"/>
<path d="M598.772 496.801C598.772 494.516 597.755 492.648 596.489 492.648C595.223 492.648 594.206 494.516 594.206 496.801C594.206 499.087 595.223 500.955 596.489 500.955C597.755 500.955 598.772 499.112 598.772 496.801Z" fill="#5D4E51"/>
<path d="M588.374 391.582L574.6 388.707L572.64 397.801L586.637 400.578L588.374 391.582Z" fill="#E6FBFF"/>
<path d="M590.401 394.334L585.289 393.33L584.275 398.392L589.387 399.396L590.401 394.334Z" fill="#C5EFFF"/>
<path d="M522.509 460.106C522.509 460.106 526.057 462.982 525.785 479.474C525.512 495.99 527.968 509.828 532.336 508.427C536.704 507.026 537.2 511.081 541.32 512.433C545.44 513.785 551.073 509.729 554.002 509.729C556.93 509.729 557.476 510.368 559.933 508.427C562.39 506.485 558.295 505.428 564.847 500.955C571.399 496.482 574.674 494.319 574.128 485.643C573.583 476.991 576.685 451.676 565.691 447.006C554.771 442.361 522.509 460.106 522.509 460.106Z" fill="#E5D7CA"/>
<path d="M522.509 460.106C522.509 460.106 526.057 462.982 525.785 479.474C525.512 495.99 527.968 509.828 532.336 508.427C536.704 507.026 537.2 511.081 541.32 512.433C545.44 513.785 551.073 509.729 554.002 509.729C556.93 509.729 557.476 510.368 559.933 508.427C562.39 506.485 557.129 462.048 546.159 457.378C535.19 452.733 522.509 460.106 522.509 460.106Z" fill="#FFF1E4"/>
<defs>
<clipPath id="clip0">
<rect width="278" height="637" fill="white" transform="translate(609 50)"/>
</clipPath>
</defs>
</svg>
